<?xml version="1.0" encoding="UTF-8"?>
<svg xmlns="http://www.w3.org/2000/svg" viewBox="0 0 1600 360" role="img" aria-label="NT4 Systems wordmark (vectorized)">
  <title>NT4 Systems — NT4 vetorizado fiel ao chanfro, Systems ao lado</title>
  <desc>Vetor exato da sigla NT4 a partir da arte original (fundo azul), preservando o chanfro entre T e 4. Fundo transparente.</desc>
  <defs>
    <style>
      .nt4 { fill:#0c4a5d; }
      .sys { font-family: Inter, Roboto, Arial, sans-serif; font-weight: 700; fill:#37474f; letter-spacing:0.01em; }
    </style>
  </defs>

  <path class="nt4" fill-rule="evenodd" d="M 273.91 296.70 L 54.21 296.70 L 50.15 295.18 L 45.33 290.87 L 43.81 287.82 L 42.79 287.82 L 42.79 74.71 L 44.31 70.15 L 48.63 65.33 L 54.21 63.30 L 52.43 62.54 L 54.71 61.78 L 273.91 61.78 L 54.97 62.54 L 273.91 62.79 L 279.49 64.82 L 283.30 68.12 L 285.84 73.70 L 285.84 284.78 L 283.81 289.34 L 284.31 290.87 L 277.46 295.69 L 273.91 296.70 Z
      M 42.03 284.52 L 42.03 74.97 L 42.03 284.52 Z
      M 286.60 284.52 L 286.60 74.97 L 286.60 284.52 Z
      M 147.82 203.59 L 147.82 129.51 L 145.54 128.75 L 146.05 129.77 L 137.42 129.77 L 136.41 128.75 L 135.90 129.77 L 131.08 130.02 L 130.82 178.99 L 90.74 129.26 L 86.17 129.77 L 85.67 128.75 L 85.16 129.77 L 76.03 129.77 L 75.77 203.59 L 90.74 203.85 L 91.50 203.09 L 91.75 155.14 L 131.84 203.85 L 147.82 203.59 Z
      M 172.68 204.10 L 172.68 144.74 L 154.16 144.48 L 153.91 131.04 L 154.67 143.97 L 173.19 144.23 L 173.19 203.59 L 188.16 203.85 L 188.92 202.58 L 189.43 190.91 L 189.43 145.24 L 207.44 144.99 L 221.14 130.27 L 219.11 129.77 L 218.60 128.75 L 218.10 129.77 L 213.28 129.51 L 217.59 128.75 L 211.50 128.75 L 212.01 129.77 L 184.86 129.51 L 187.15 128.75 L 184.61 128.75 L 183.59 129.77 L 166.34 129.77 L 177.76 129.01 L 156.19 128.75 L 156.19 129.77 L 153.40 130.02 L 153.66 144.99 L 172.18 145.24 L 172.68 204.10 Z
      M 253.36 203.59 L 254.38 203.09 L 253.87 130.53 L 250.06 128.75 L 249.56 129.77 L 237.38 129.77 L 238.14 129.01 L 236.87 128.75 L 194.00 173.15 L 194.00 186.85 L 196.03 187.86 L 195.26 188.63 L 237.38 188.63 L 237.12 202.58 L 238.14 202.07 L 238.39 203.85 L 253.36 203.59 Z
      M 228.75 174.42 L 215.05 174.42 L 212.77 173.66 L 213.53 172.90 L 214.55 173.40 L 236.87 150.06 L 237.63 173.66 L 228.75 174.42 Z
      M 273.91 297.72 L 54.46 297.46 L 273.91 297.72 Z"/>
  <text x="300.60" y="252.00" class="sys" font-size="110">Systems</text>
</svg>